<svg width="120" height="120" viewBox="0 0 120 120" fill="none" xmlns="http://www.w3.org/2000/svg">
<path opacity="0.4" d="M60 110.05C87.6142 110.05 110 87.6643 110 60.05C110 32.4358 87.6142 10.05 60 10.05C32.3858 10.05 10 32.4358 10 60.05C10 87.6643 32.3858 110.05 60 110.05Z" fill="#292D32"/>
<path d="M60 34.7C49.65 34.7 41.25 43.0999 41.25 53.4499C41.25 63.5999 49.2 71.8499 59.75 72.1499C59.9 72.1499 60.1 72.1499 60.2 72.1499C60.3 72.1499 60.45 72.1499 60.55 72.1499C60.6 72.1499 60.65 72.1499 60.65 72.1499C70.75 71.7999 78.7 63.5999 78.75 53.4499C78.75 43.0999 70.35 34.7 60 34.7Z" fill="white"/>
<path d="M93.8996 96.8C84.9996 105 73.0996 110.05 59.9996 110.05C46.8996 110.05 34.9996 105 26.0996 96.8C27.2996 92.25 30.5496 88.1 35.2996 84.9C48.9496 75.8 71.1496 75.8 84.6996 84.9C89.4996 88.1 92.6996 92.25 93.8996 96.8Z" fill="white"/>
</svg>
