<svg width="25" height="24" viewBox="0 0 25 24" fill="none" xmlns="http://www.w3.org/2000/svg">
<path d="M21.2012 22H3.20117C2.79117 22 2.45117 21.66 2.45117 21.25C2.45117 20.84 2.79117 20.5 3.20117 20.5H21.2012C21.6112 20.5 21.9512 20.84 21.9512 21.25C21.9512 21.66 21.6112 22 21.2012 22Z" fill="#28353A"/>
<path d="M19.2217 3.48016C17.2817 1.54016 15.3817 1.49016 13.3917 3.48016L12.1817 4.69016C12.0817 4.79016 12.0417 4.95016 12.0817 5.09016C12.8417 7.74016 14.9617 9.86016 17.6117 10.6202C17.6517 10.6302 17.6917 10.6402 17.7317 10.6402C17.8417 10.6402 17.9417 10.6002 18.0217 10.5202L19.2217 9.31016C20.2117 8.33016 20.6917 7.38016 20.6917 6.42016C20.7017 5.43016 20.2217 4.47016 19.2217 3.48016Z" fill="#28353A"/>
<path d="M15.8115 11.5298C15.5215 11.3898 15.2415 11.2498 14.9715 11.0898C14.7515 10.9598 14.5415 10.8198 14.3315 10.6698C14.1615 10.5598 13.9615 10.3998 13.7715 10.2398C13.7515 10.2298 13.6815 10.1698 13.6015 10.0898C13.2715 9.8098 12.9015 9.4498 12.5715 9.0498C12.5415 9.0298 12.4915 8.9598 12.4215 8.8698C12.3215 8.7498 12.1515 8.5498 12.0015 8.3198C11.8815 8.1698 11.7415 7.9498 11.6115 7.7298C11.4515 7.4598 11.3115 7.1898 11.1715 6.9098C11.1503 6.86441 11.1298 6.81924 11.1099 6.77434C10.9624 6.44102 10.5277 6.34358 10.27 6.60133L4.54149 12.3298C4.41149 12.4598 4.29149 12.7098 4.26149 12.8798L3.72149 16.7098C3.62149 17.3898 3.81149 18.0298 4.23149 18.4598C4.59149 18.8098 5.09149 18.9998 5.63149 18.9998C5.75149 18.9998 5.87149 18.9898 5.99149 18.9698L9.83149 18.4298C10.0115 18.3998 10.2615 18.2798 10.3815 18.1498L16.1028 12.4285C16.3624 12.1689 16.2644 11.7235 15.9268 11.5794C15.8888 11.5632 15.8504 11.5467 15.8115 11.5298Z" fill="#28353A"/>
</svg>
