<svg width="20" height="20" viewBox="0 0 20 20" fill="none" xmlns="http://www.w3.org/2000/svg">
<path d="M10 8.76621C9.65833 8.76621 9.375 8.48288 9.375 8.14121V5.36621C9.375 5.02454 9.65833 4.74121 10 4.74121C10.3417 4.74121 10.625 5.02454 10.625 5.36621V8.14121C10.625 8.49121 10.3417 8.76621 10 8.76621Z" fill="#28353A"/>
<path d="M10.0187 16.9592C7.86867 16.9592 5.72701 16.6175 3.68534 15.9342C2.92701 15.6842 2.35201 15.1425 2.10201 14.4592C1.85201 13.7758 1.93534 12.9925 2.34367 12.3092L3.40201 10.5425C3.63534 10.1508 3.84367 9.41751 3.84367 8.95918V7.20918C3.84367 3.80085 6.61034 1.03418 10.0187 1.03418C13.427 1.03418 16.1937 3.80085 16.1937 7.20918V8.95918C16.1937 9.40918 16.402 10.1508 16.6353 10.5425L17.6937 12.3092C18.0853 12.9592 18.152 13.7342 17.8937 14.4425C17.6353 15.1508 17.0687 15.6925 16.352 15.9342C14.3103 16.6258 12.1687 16.9592 10.0187 16.9592ZM10.0187 2.29251C7.30201 2.29251 5.09367 4.50085 5.09367 7.21751V8.96751C5.09367 9.64251 4.827 10.6175 4.477 11.1925L3.41867 12.9675C3.20201 13.3258 3.15201 13.7092 3.27701 14.0425C3.40201 14.3758 3.68534 14.6258 4.08534 14.7592C7.91867 16.0342 12.1353 16.0342 15.9687 14.7592C16.327 14.6425 16.602 14.3758 16.727 14.0258C16.8603 13.6758 16.8187 13.2925 16.627 12.9675L15.5687 11.2008C15.2187 10.6258 14.952 9.65085 14.952 8.97585V7.22585C14.9437 4.50085 12.7353 2.29251 10.0187 2.29251Z" fill="#28353A"/>
<path d="M10.0016 19.0831C9.1099 19.0831 8.2349 18.7164 7.60156 18.0831C6.96823 17.4498 6.60156 16.5748 6.60156 15.6831H7.85156C7.85156 16.2498 8.0849 16.7998 8.4849 17.1998C8.8849 17.5998 9.4349 17.8331 10.0016 17.8331C11.1849 17.8331 12.1516 16.8664 12.1516 15.6831H13.4016C13.4016 17.5581 11.8766 19.0831 10.0016 19.0831Z" fill="#28353A"/>
</svg>
