<svg width="20" height="20" viewBox="0 0 20 20" fill="none" xmlns="http://www.w3.org/2000/svg">
<mask id="mask0_2595_4087" style="mask-type:alpha" maskUnits="userSpaceOnUse" x="0" y="0" width="20" height="20">
<rect width="20" height="20" fill="#D9D9D9"/>
</mask>
<g mask="url(#mask0_2595_4087)">
<path d="M10 11.1668L7.58333 13.5835C7.43056 13.7363 7.23611 13.8127 7 13.8127C6.76389 13.8127 6.56944 13.7363 6.41667 13.5835C6.26389 13.4307 6.1875 13.2363 6.1875 13.0002C6.1875 12.7641 6.26389 12.5696 6.41667 12.4168L8.83333 10.0002L6.41667 7.60433C6.26389 7.45155 6.1875 7.25711 6.1875 7.021C6.1875 6.78489 6.26389 6.59044 6.41667 6.43766C6.56944 6.28488 6.76389 6.2085 7 6.2085C7.23611 6.2085 7.43056 6.28488 7.58333 6.43766L10 8.85433L12.3958 6.43766C12.5486 6.28488 12.7431 6.2085 12.9792 6.2085C13.2153 6.2085 13.4097 6.28488 13.5625 6.43766C13.7292 6.60433 13.8125 6.80225 13.8125 7.03141C13.8125 7.26058 13.7292 7.45155 13.5625 7.60433L11.1458 10.0002L13.5625 12.4168C13.7153 12.5696 13.7917 12.7641 13.7917 13.0002C13.7917 13.2363 13.7153 13.4307 13.5625 13.5835C13.3958 13.7502 13.1979 13.8335 12.9688 13.8335C12.7396 13.8335 12.5486 13.7502 12.3958 13.5835L10 11.1668Z" fill="#F87171"/>
</g>
</svg>
