<svg width="28" height="28" viewBox="0 0 28 28" fill="none" xmlns="http://www.w3.org/2000/svg">
<path d="M1.37109 21.9072H6.92578C6.89062 22.127 6.87305 22.3467 6.87305 22.5576C6.87305 24.1133 7.75195 25.1768 9.49219 25.1768C11.4521 25.1768 13.043 23.9375 14.1064 21.9072H26.6396C27.0615 21.9072 27.4043 21.5469 27.4043 21.125C27.4043 20.7031 27.0615 20.3516 26.6396 20.3516H14.7744C15.2578 18.9189 15.5479 17.2402 15.6094 15.4033C16.1719 15.2891 16.7432 15.2188 17.3408 15.2188C17.6045 15.2188 17.7627 15.3418 17.7627 15.5352C17.7627 16.2646 17.332 16.8535 17.332 17.6445C17.332 18.3564 17.8594 18.7959 18.5625 18.7959C20.3906 18.7959 22.5879 15.79 23.2471 15.79C23.8447 15.79 23.1592 18.4707 25.3828 18.4707C25.7695 18.4707 26.2617 18.374 26.6309 18.1191C26.877 17.9609 27.0439 17.7148 27.0439 17.4072C27.0439 17.0205 26.7803 16.6865 26.376 16.6865C26.0771 16.6865 25.8223 16.915 25.5498 16.915C24.6973 16.915 25.5234 14.0322 23.6865 14.0322C22.1221 14.0322 19.8281 16.8711 19.2568 16.8711C19.1865 16.8711 19.1338 16.8271 19.1338 16.7305C19.1338 16.4404 19.4502 15.8428 19.4502 15.2363C19.4502 14.2695 18.6943 13.6719 17.4902 13.6719C16.8398 13.6719 16.2158 13.7334 15.6006 13.8477C15.3633 9.16309 13.0957 5.56836 9.73828 5.56836C7.36523 5.56836 5.60742 7.50195 5.60742 10.0508C5.60742 12.96 7.48828 15.4209 9.70312 17.0469C8.65723 18.0752 7.86621 19.2354 7.38281 20.3516H1.37109C0.94043 20.3516 0.597656 20.7031 0.597656 21.125C0.597656 21.5469 0.949219 21.9072 1.37109 21.9072ZM7.1543 10.042C7.1543 8.38086 8.26172 7.12402 9.73828 7.12402C12.2607 7.12402 13.957 10.2793 14.0625 14.2695C12.876 14.6914 11.7861 15.3154 10.8369 16.0449C9.07031 14.7793 7.1543 12.7227 7.1543 10.042ZM1.03711 18.5059C1.29199 18.7607 1.67871 18.752 1.9248 18.5059L2.98828 17.4512L4.04297 18.5059C4.29785 18.7607 4.67578 18.7607 4.93066 18.5059C5.18555 18.2598 5.18555 17.8643 4.93066 17.6182L3.87598 16.5635L4.93066 15.5088C5.18555 15.2627 5.18555 14.876 4.93066 14.6211C4.68457 14.3662 4.29785 14.375 4.04297 14.6211L2.98828 15.6758L1.9248 14.6211C1.66992 14.375 1.29199 14.375 1.03711 14.6211C0.782227 14.876 0.782227 15.2715 1.03711 15.5176L2.0918 16.5635L1.03711 17.6182C0.782227 17.873 0.782227 18.251 1.03711 18.5059ZM11.6807 18.2334C11.8125 18.3037 11.9443 18.3301 12.0762 18.3301C12.4805 18.3301 12.7881 18.0225 12.7881 17.6533C12.7881 17.4072 12.6738 17.1699 12.3838 17.0029C12.3223 16.9766 12.2695 16.9414 12.208 16.915C12.7705 16.5195 13.377 16.1768 14.0361 15.9043C13.9219 17.583 13.5967 19.1035 13.1045 20.3516H9.0791C9.50977 19.5342 10.1689 18.6641 11.0039 17.8818C11.2324 18.0049 11.4521 18.1279 11.6807 18.2334ZM8.48145 22.3291C8.48145 22.1973 8.49902 22.0566 8.5166 21.9072H12.3047C11.5752 22.9883 10.6787 23.6299 9.66797 23.6299C8.86816 23.6299 8.48145 23.1025 8.48145 22.3291Z" fill="white"/>
</svg>
