<svg width="25" height="24" viewBox="0 0 25 24" fill="none" xmlns="http://www.w3.org/2000/svg">
<path d="M21.2708 5.23C19.6608 5.07 18.0508 4.95 16.4308 4.86V4.85L16.2108 3.55C16.0608 2.63 15.8408 1.25 13.5008 1.25H10.8808C8.55084 1.25 8.33084 2.57 8.17084 3.54L7.96084 4.82C7.03084 4.88 6.10084 4.94 5.17084 5.03L3.13084 5.23C2.71084 5.27 2.41084 5.64 2.45084 6.05C2.49084 6.46 2.85084 6.76 3.27084 6.72L5.31084 6.52C10.5508 6 15.8308 6.2 21.1308 6.73C21.1608 6.73 21.1808 6.73 21.2108 6.73C21.5908 6.73 21.9208 6.44 21.9608 6.05C21.9908 5.64 21.6908 5.27 21.2708 5.23Z" fill="#EB445A"/>
<path d="M19.4309 8.14C19.1909 7.89 18.8609 7.75 18.5209 7.75H5.88092C5.54092 7.75 5.20092 7.89 4.97092 8.14C4.74092 8.39 4.61092 8.73 4.63092 9.08L5.25092 19.34C5.36092 20.86 5.50092 22.76 8.99092 22.76H15.4109C18.9009 22.76 19.0409 20.87 19.1509 19.34L19.7709 9.09C19.7909 8.73 19.6609 8.39 19.4309 8.14ZM13.8609 17.75H10.5309C10.1209 17.75 9.78092 17.41 9.78092 17C9.78092 16.59 10.1209 16.25 10.5309 16.25H13.8609C14.2709 16.25 14.6109 16.59 14.6109 17C14.6109 17.41 14.2709 17.75 13.8609 17.75ZM14.7009 13.75H9.70092C9.29092 13.75 8.95092 13.41 8.95092 13C8.95092 12.59 9.29092 12.25 9.70092 12.25H14.7009C15.1109 12.25 15.4509 12.59 15.4509 13C15.4509 13.41 15.1109 13.75 14.7009 13.75Z" fill="#EB445A"/>
</svg>
